<svg width="64" height="46" viewBox="0 0 64 46" fill="none" xmlns="http://www.w3.org/2000/svg">
<path id="Vector" d="M47.4715 13.825C47.4715 13.825 42.2823 30.102 41.8595 31.4457C41.7057 30.0636 37.9003 0.849365 37.9003 0.849365C29.0595 0.849365 24.3316 7.14521 21.8331 13.7866C21.8331 13.7866 15.5291 30.102 14.991 31.4841C14.9526 30.2172 14.03 13.9785 14.03 13.9785C13.4919 5.83998 6.03483 0.887753 0 0.887753L7.30331 45.1507C16.5669 45.1123 21.5639 38.8548 24.1778 32.2134C24.1778 32.2134 29.7514 17.8174 29.982 17.1649C30.0204 17.779 33.9796 45.1507 33.9796 45.1507C43.2817 45.1507 48.2787 39.2771 50.9693 32.8661L64 0.887753C54.8132 0.887753 49.97 7.14522 47.4715 13.825Z" fill="black"/>
</svg>
